<svg version="1" xmlns="http://www.w3.org/2000/svg" width="933.333" height="933.333" viewBox="0 0 700.000000 700.000000"><path d="M588 5.1c-34.6 7.7-59.7 31.8-69.2 66.4-3.9 14.1-3.2 35.5 1.7 51 1.7 5.5 1.5 7.4-1.7 14.4-12.5 26.8-39.6 52.8-74.1 71l-9.8 5.2-4.7-2.8c-15.1-9.2-41.4-18.2-58.2-19.9-3.6-.3-6.8-.8-7.2-1.1-1.1-.6-26.6-.4-31.8.2-4.1.6-10.1 1.6-18.5 3.1-12.7 2.2-32.6 9.9-46.8 18l-4.8 2.8-7.2-3.9c-35.5-19-64-46.6-74.9-72.6l-3-7.3 1.7-5.5c3.6-11.1 4.4-17.4 4.1-31.1-.3-14.4-1.3-19.4-6.9-33-9.1-22.5-28.9-41.5-51.9-49.9-11.5-4.2-18.3-5.4-31.3-5.5C81 4.6 76 5.3 64.6 9 21.5 23-4.8 67.2 3.4 112c1.3 7 2 9.7 2.9 10.7.5.7.7 1.3.4 1.3-.9 0 4.3 11.8 7.7 17.5 12.4 20.8 30.2 34.6 53.3 41.4 16.8 4.9 35 4.8 51.8-.4l7.4-2.2 5.4 2.2c16.7 6.7 36.5 22.1 51 39.5 6.2 7.5 17.1 24 22.5 33.9l5 9.4-5.3 10.1c-13.4 25.3-18.9 48-18.9 77.1.1 29.2 7.2 56.2 21 79.7l3.3 5.7-4.1 7.8c-18.4 35.1-45.7 63.2-72.6 74.9l-7.3 3.2-6.2-2c-3.4-1.1-7.5-2.2-9.2-2.5-1.6-.3-4.9-.8-7.3-1.3-6.5-1.2-22.8-.4-31.2 1.5-11.7 2.6-26.1 9.1-34.4 15.5-4.8 3.6-14.9 13.7-18.5 18.4-11.4 14.7-18.2 34.7-18.5 54.1-.2 12.9 3.7 30.3 9.5 41.8 5.7 11.2 15.6 23.1 26.9 32.2 5.5 4.4 18 10.7 26.9 13.6 27.5 8.8 59 3.9 81.2-12.8 19.6-14.8 31.4-33.4 36.4-57.8 1.3-6.1 1.3-23.2 0-30.5-1.3-7.6-4-17.8-4.9-18.7-1.3-1.3 8.1-19.4 15.4-29.5 13.2-18.2 36.9-37.8 61.9-51.1l8.4-4.5 3.6 2.3c12.1 7.6 31.1 14.9 49.6 19.1 12.5 2.8 40.8 3.8 54.5 1.9 20.4-2.8 45.1-11.4 61-21.1l3.5-2.1 8.5 4.7c11.1 6.1 12.2 6.7 20 11.9 23.8 16 42.8 36.5 52.6 56.6 4.9 10.1 5.1 11.3 2.8 17.6-4.7 13.2-5.3 35.8-1.4 50.4 7.6 28.4 27.6 51.1 54.6 61.8 12.1 4.9 22.1 6.5 36.9 6.2 28.1-.8 53.2-14 70.3-37 8.1-11 15-27.8 16.8-41 1.1-7.8.8-22.4-.5-28.7-.7-3.2-1.2-6-1.2-6.3.2-1.7-6.7-18.1-9.8-23.6-4.4-7.5-7-10.9-15.7-19.6-22.6-22.6-58.8-31.4-89.6-21.7l-7.8 2.5-6.3-2.8c-28.6-12.6-56-41-74.8-77.5l-2.9-5.7 4.9-9.3c26.9-50.3 25.7-110.7-2.9-159.5l-1.9-3.2 3.6-6.8c18.6-35.1 40.9-59.7 66.7-73.8 12-6.5 13.8-6.9 21.1-4.6 10.7 3.4 19 4.4 31.9 3.8 14.1-.7 22.7-2.8 34.7-8.4 40.9-19.2 61.4-66.2 47.8-109.8-8.9-28.7-34.5-53.2-63.4-60.4-2.7-.7-5.9-1.5-7-1.8-1.1-.3-7.6-.7-14.5-.8-9.5-.3-14.6.1-21 1.6z"/></svg>